<svg width="37" height="33" viewBox="0 0 37 33" fill="none" xmlns="http://www.w3.org/2000/svg">
<path d="M27.0841 29.4382C27.0293 28.2648 26.9566 27.0976 26.8984 25.933C26.7102 22.2898 26.7256 18.5932 26.5288 14.932C26.3319 11.2982 26.4487 7.66199 26.3448 4.02835C26.3239 3.27315 26.3576 1.78172 25.5762 1.3512C23.8952 0.426365 22.8973 2.94897 22.4696 3.97597C21.6987 5.84012 21.2533 7.80074 20.7027 9.732C20.2334 11.3851 19.6989 13.0328 19.5178 14.7444C19.3836 16.0287 19.3959 17.4664 20.0669 18.6236C20.4038 19.2052 20.9863 19.601 21.6496 19.7683C22.3381 19.9445 23.1252 19.7139 23.7784 20.0248C23.9468 20.1061 24.0952 20.2752 24.1628 20.4459C24.3745 20.9962 24.1742 21.831 24.108 22.3987C23.8983 24.2274 23.6766 26.0743 23.5773 27.9118C23.5186 29.023 23.4537 30.4462 24.1259 31.4144C24.538 32.0023 25.373 32.5513 26.1265 32.2591C27.2526 31.8281 27.1309 30.372 27.0841 29.4382Z" fill="white"/>
<path d="M12.7576 2.16238C12.4339 2.29212 12.5567 3.4492 12.5422 3.80471C12.521 4.44342 12.5646 5.28857 12.4877 6.11634C12.4872 6.12374 12.4861 6.12887 12.485 6.134C12.4784 6.19153 12.473 6.25357 12.4635 6.3191C12.4534 6.38236 12.4427 6.44336 12.4349 6.50601C12.366 6.90959 12.2346 7.38752 11.9864 7.61665C11.7045 7.87873 11.073 7.82361 10.8537 7.51395C10.4948 7.00988 10.5217 5.88448 10.4999 5.85129C10.4853 5.31889 10.4078 3.7086 10.2914 2.64692C10.2818 2.56693 10.2663 2.0857 9.82694 2.03428C9.62205 2.01203 9.40646 2.18663 9.33658 2.50552C9.13023 3.44681 8.93699 5.24113 8.92482 5.52328C8.92235 5.5506 8.92113 5.58246 8.92101 5.60917C8.92101 5.60917 8.91992 5.61431 8.92055 5.61657C8.91921 5.67514 8.84944 7.08091 8.49369 7.56589C8.30777 7.82016 7.82505 8.02013 7.34535 7.75108C7.15429 7.64276 7.02335 7.43399 6.93105 7.21038C6.42941 5.64904 6.87972 3.92899 6.9438 3.10939C6.96277 2.87886 7.17152 2.1092 6.70581 2.13495C6.00457 2.17304 5.09901 5.16072 4.9371 5.84549C4.54013 7.54932 4.47995 9.3699 5.17044 11.0134C5.55406 11.9236 6.30431 12.6686 7.23469 13.0298C7.64585 13.188 8.10282 13.3028 8.58665 13.3694C8.41258 17.2428 8.21492 21.2848 8.03492 23.5342C7.89648 25.227 7.73303 26.9385 7.75501 28.6383C7.76801 29.6539 7.75731 30.8649 8.42396 31.7164C9.12134 32.6061 10.5923 32.1968 10.9894 31.1456C11.4349 29.9605 11.3053 28.5796 11.1536 26.4037C11.0013 24.2256 10.8299 21.2543 10.7354 19.6557C10.5971 17.3017 10.5488 15.2447 10.5356 13.3679C11.7742 13.1909 12.9295 12.6594 13.576 11.682C13.8597 11.2545 14.0464 10.7768 14.174 10.2853C14.3696 9.54083 14.465 8.72527 14.4227 7.95741C14.3798 7.25039 13.7987 1.7453 12.7576 2.16238Z" fill="white"/>
</svg>
